<svg width="21" height="20" viewBox="0 0 21 20" fill="none" xmlns="http://www.w3.org/2000/svg">
<path d="M13.22 6.79L8.93001 11.09L7.28 9.44C7.19036 9.33532 7.08004 9.2503 6.95597 9.19027C6.83191 9.13025 6.69678 9.09652 6.55906 9.0912C6.42134 9.08588 6.28401 9.10909 6.15568 9.15936C6.02736 9.20964 5.91081 9.28589 5.81335 9.38335C5.7159 9.4808 5.63964 9.59735 5.58937 9.72568C5.53909 9.854 5.51589 9.99133 5.52121 10.1291C5.52653 10.2668 5.56026 10.4019 5.62028 10.526C5.6803 10.65 5.76532 10.7604 5.87 10.85L8.22001 13.21C8.31345 13.3027 8.42426 13.376 8.5461 13.4258C8.66794 13.4755 8.7984 13.5008 8.93001 13.5C9.19235 13.4989 9.44375 13.3947 9.63001 13.21L14.63 8.21C14.7237 8.11704 14.7981 8.00644 14.8489 7.88458C14.8997 7.76272 14.9258 7.63201 14.9258 7.5C14.9258 7.36799 14.8997 7.23728 14.8489 7.11542C14.7981 6.99356 14.7237 6.88296 14.63 6.79C14.4426 6.60375 14.1892 6.49921 13.925 6.49921C13.6608 6.49921 13.4074 6.60375 13.22 6.79ZM10.5 0C8.52219 0 6.58879 0.58649 4.9443 1.6853C3.29981 2.78412 2.01809 4.3459 1.26121 6.17317C0.504333 8.00043 0.306299 10.0111 0.692152 11.9509C1.078 13.8907 2.03041 15.6725 3.42894 17.0711C4.82746 18.4696 6.60929 19.422 8.5491 19.8079C10.4889 20.1937 12.4996 19.9957 14.3268 19.2388C16.1541 18.4819 17.7159 17.2002 18.8147 15.5557C19.9135 13.9112 20.5 11.9778 20.5 10C20.5 8.68678 20.2413 7.38642 19.7388 6.17317C19.2363 4.95991 18.4997 3.85752 17.5711 2.92893C16.6425 2.00035 15.5401 1.26375 14.3268 0.761205C13.1136 0.258658 11.8132 0 10.5 0V0ZM10.5 18C8.91776 18 7.37104 17.5308 6.05544 16.6518C4.73985 15.7727 3.71447 14.5233 3.10897 13.0615C2.50347 11.5997 2.34504 9.99113 2.65372 8.43928C2.9624 6.88743 3.72433 5.46197 4.84315 4.34315C5.96197 3.22433 7.38744 2.4624 8.93928 2.15372C10.4911 1.84504 12.0997 2.00346 13.5615 2.60896C15.0233 3.21447 16.2727 4.23984 17.1518 5.55544C18.0308 6.87103 18.5 8.41775 18.5 10C18.5 12.1217 17.6572 14.1566 16.1569 15.6569C14.6566 17.1571 12.6217 18 10.5 18V18Z" fill="#725EF3"/>
</svg>
