<svg width="34" height="34" viewBox="0 0 34 34" fill="none" xmlns="http://www.w3.org/2000/svg">
<path fill-rule="evenodd" clip-rule="evenodd" d="M17 34C26.3888 34 34 26.3888 34 17C34 7.61116 26.3888 0 17 0C7.61116 0 0 7.61116 0 17C0 26.3888 7.61116 34 17 34ZM18.275 11.9C18.275 11.1958 17.7042 10.625 17 10.625C16.2958 10.625 15.725 11.1958 15.725 11.9V15.725H11.9C11.1958 15.725 10.625 16.2958 10.625 17C10.625 17.7042 11.1958 18.275 11.9 18.275H15.725V22.1C15.725 22.8042 16.2958 23.375 17 23.375C17.7042 23.375 18.275 22.8042 18.275 22.1V18.275H22.1C22.8042 18.275 23.375 17.7042 23.375 17C23.375 16.2958 22.8042 15.725 22.1 15.725H18.275V11.9Z" fill="#7D6AF7"/>
</svg>
