<svg width="32" height="32" viewBox="0 0 32 32" fill="none" xmlns="http://www.w3.org/2000/svg">
<path d="M16 0C24.8366 0 32 7.16344 32 16C32 24.8366 24.8366 32 16 32C7.16344 32 0 24.8366 0 16C0 7.16344 7.16344 0 16 0Z" fill="#7F4DA0"/>
<path d="M20.2628 13.9722C20.185 13.34 19.9907 12.8436 19.6456 12.4039C19.1975 11.8377 18.6249 11.4986 17.7771 11.2975C17.2246 11.1635 17.0014 11.1789 16.8016 11.3614C16.6154 11.5324 16.5791 11.8752 16.7213 12.0972C16.8214 12.2584 16.9367 12.3161 17.2577 12.3791C17.6851 12.4577 17.9805 12.5598 18.2492 12.7134C18.8195 13.0427 19.085 13.558 19.1135 14.3922C19.1268 14.7839 19.1606 14.9043 19.2974 15.0433C19.551 15.2972 20.0022 15.2478 20.1937 14.9439C20.2639 14.8294 20.2746 14.7795 20.282 14.5136C20.2869 14.3489 20.2799 14.1038 20.2628 13.9722Z" fill="white"/>
<path d="M22.4965 14.685C22.3839 12.7481 21.6263 11.1897 20.2704 10.0933C19.5065 9.47724 18.5831 9.05361 17.571 8.84759C17.2002 8.77391 16.5175 8.71418 16.4004 8.74835C16.2899 8.77998 16.1336 8.89964 16.0639 9.00785C15.9903 9.1252 15.9737 9.38721 16.0365 9.53876C16.1379 9.79211 16.3267 9.88162 16.8551 9.92785C17.6699 9.99913 18.5102 10.2854 19.1452 10.7091C19.87 11.1916 20.4463 11.8516 20.8191 12.627C21.1411 13.2933 21.3392 14.2535 21.3337 15.1134C21.3319 15.4244 21.3799 15.6 21.505 15.7284C21.6938 15.9258 21.969 15.969 22.2118 15.8379C22.481 15.6963 22.5439 15.4479 22.4965 14.685Z" fill="white"/>
<path d="M24.9682 22.1443C24.9304 22.0336 24.842 21.8628 24.7788 21.7648C24.3809 21.1639 22.2431 19.4909 21.1757 18.9438C20.5663 18.6307 20.1147 18.5264 19.78 18.6244C19.42 18.7256 19.2305 18.8932 18.6274 19.6427C18.3843 19.9432 18.1348 20.2247 18.0685 20.2689C17.9043 20.3828 17.5822 20.4745 17.3548 20.4745C16.8275 20.4713 15.8707 20.1298 15.1349 19.6807C14.5633 19.3328 13.8308 18.7098 13.2686 18.0931C12.6055 17.3689 12.154 16.73 11.7971 16.0089C11.3361 15.0823 11.2192 14.5162 11.4118 14.1019C11.4592 13.9975 11.5224 13.8869 11.5508 13.852C11.5792 13.8205 11.8761 13.5769 12.2044 13.3112C12.8487 12.7989 12.9528 12.6819 13.0728 12.3309C13.2244 11.8849 13.1834 11.4295 12.9497 10.971C12.7697 10.6231 12.2992 9.86405 11.9582 9.37386C11.5066 8.72872 10.3824 7.34984 10.1582 7.16319C9.75399 6.83432 9.23616 6.77736 8.66454 6.99878C8.06146 7.23282 6.93094 8.14363 6.44778 8.77932C6.01201 9.35489 5.8447 9.76284 5.81941 10.3005C5.79732 10.7432 5.8352 10.9267 6.06888 11.4928C7.89724 15.933 10.6255 19.4783 14.3739 22.293C16.3317 23.7636 18.3621 24.8831 20.4684 25.6485C21.6968 26.0944 22.2304 26.1165 22.8588 25.7497C23.1241 25.5915 23.7809 24.9179 24.1472 24.4277C24.7535 23.6118 24.9777 23.2354 25.0409 22.935C25.0851 22.7294 25.0503 22.3721 24.9682 22.1443Z" fill="white"/>
<path d="M24.7703 15.13C24.7298 14.0344 24.5454 13.1357 24.1607 12.1337C23.781 11.1481 23.3966 10.505 22.6708 9.63512C21.9845 8.8195 21.4515 8.3538 20.6062 7.83541C19.4268 7.11315 17.9914 6.63518 16.3829 6.43417C15.8343 6.36392 15.7102 6.36894 15.5419 6.48123C15.2158 6.69395 15.2202 7.22454 15.5473 7.43407C15.6556 7.50073 15.7517 7.52501 16.1905 7.58244C16.8641 7.67313 17.2972 7.75859 17.8112 7.89882C19.8265 8.44974 21.3763 9.57583 22.4124 11.2475C23.2795 12.6408 23.6394 14.0342 23.5883 15.8139C23.5706 16.4155 23.5835 16.5214 23.6754 16.666C23.8516 16.9354 24.316 16.9887 24.5543 16.7651C24.7026 16.6289 24.7305 16.5266 24.7597 16.0116C24.7737 15.743 24.7767 15.3464 24.7703 15.13Z" fill="white"/>
</svg>
