<svg width="123" height="50" viewBox="0 0 123 50" fill="none" xmlns="http://www.w3.org/2000/svg">
<path d="M48.768 35.48C48.768 36.632 49.04 37.64 49.584 38.504C50.128 39.368 50.88 40.04 51.84 40.52C52.8 41 53.88 41.24 55.08 41.24C56.28 41.24 57.352 41 58.296 40.52C59.256 40.04 60.008 39.368 60.552 38.504C61.112 37.64 61.392 36.632 61.392 35.48C61.392 34.312 61.112 33.296 60.552 32.432C60.008 31.568 59.256 30.896 58.296 30.416C57.352 29.936 56.28 29.696 55.08 29.696C53.88 29.696 52.8 29.936 51.84 30.416C50.88 30.896 50.128 31.568 49.584 32.432C49.04 33.296 48.768 34.312 48.768 35.48ZM52.488 35.48C52.488 34.904 52.608 34.408 52.848 33.992C53.088 33.576 53.4 33.256 53.784 33.032C54.168 32.808 54.6 32.696 55.08 32.696C55.544 32.696 55.968 32.808 56.352 33.032C56.752 33.256 57.064 33.576 57.288 33.992C57.528 34.408 57.648 34.904 57.648 35.48C57.648 36.056 57.528 36.552 57.288 36.968C57.064 37.368 56.752 37.68 56.352 37.904C55.968 38.128 55.544 38.24 55.08 38.24C54.6 38.24 54.168 38.128 53.784 37.904C53.4 37.68 53.088 37.368 52.848 36.968C52.608 36.552 52.488 36.056 52.488 35.48ZM75.3617 29.96V32.96H82.8977V29.96H75.3617ZM82.4897 25.76L83.9537 23.096C83.7937 22.936 83.5777 22.768 83.3057 22.592C83.0337 22.4 82.7057 22.24 82.3217 22.112C81.9377 21.968 81.4657 21.896 80.9057 21.896C79.9937 21.896 79.2257 22.056 78.6017 22.376C77.9937 22.696 77.5297 23.152 77.2097 23.744C76.9057 24.336 76.7537 25.048 76.7537 25.88V41H80.2337V26.792C80.2337 26.408 80.2817 26.096 80.3777 25.856C80.4737 25.616 80.6017 25.44 80.7617 25.328C80.9377 25.216 81.1457 25.16 81.3857 25.16C81.5937 25.16 81.7857 25.208 81.9617 25.304C82.1537 25.4 82.3297 25.552 82.4897 25.76ZM83.9477 35.48C83.9477 36.632 84.2197 37.64 84.7637 38.504C85.3077 39.368 86.0597 40.04 87.0197 40.52C87.9797 41 89.0597 41.24 90.2597 41.24C91.4597 41.24 92.5317 41 93.4757 40.52C94.4357 40.04 95.1877 39.368 95.7317 38.504C96.2917 37.64 96.5717 36.632 96.5717 35.48C96.5717 34.312 96.2917 33.296 95.7317 32.432C95.1877 31.568 94.4357 30.896 93.4757 30.416C92.5317 29.936 91.4597 29.696 90.2597 29.696C89.0597 29.696 87.9797 29.936 87.0197 30.416C86.0597 30.896 85.3077 31.568 84.7637 32.432C84.2197 33.296 83.9477 34.312 83.9477 35.48ZM87.6677 35.48C87.6677 34.904 87.7877 34.408 88.0277 33.992C88.2677 33.576 88.5797 33.256 88.9637 33.032C89.3477 32.808 89.7797 32.696 90.2597 32.696C90.7237 32.696 91.1477 32.808 91.5317 33.032C91.9317 33.256 92.2437 33.576 92.4677 33.992C92.7077 34.408 92.8277 34.904 92.8277 35.48C92.8277 36.056 92.7077 36.552 92.4677 36.968C92.2437 37.368 91.9317 37.68 91.5317 37.904C91.1477 38.128 90.7237 38.24 90.2597 38.24C89.7797 38.24 89.3477 38.128 88.9637 37.904C88.5797 37.68 88.2677 37.368 88.0277 36.968C87.7877 36.552 87.6677 36.056 87.6677 35.48ZM102.328 29.96H98.7519V41H102.328V29.96ZM105.52 33.704L107.08 30.608C106.888 30.32 106.608 30.096 106.24 29.936C105.872 29.776 105.488 29.696 105.088 29.696C104.48 29.696 103.896 29.896 103.336 30.296C102.776 30.696 102.32 31.24 101.968 31.928C101.632 32.616 101.464 33.4 101.464 34.28L102.328 35.552C102.328 35.024 102.4 34.576 102.544 34.208C102.688 33.84 102.896 33.56 103.168 33.368C103.44 33.176 103.752 33.08 104.104 33.08C104.424 33.08 104.688 33.136 104.896 33.248C105.12 33.36 105.328 33.512 105.52 33.704ZM116.995 22.28V41H120.619V22.28H116.995ZM107.971 35.48C107.971 36.712 108.219 37.76 108.715 38.624C109.227 39.472 109.883 40.12 110.683 40.568C111.483 41.016 112.331 41.24 113.227 41.24C114.155 41.24 114.971 41.008 115.675 40.544C116.395 40.08 116.963 39.416 117.379 38.552C117.795 37.688 118.003 36.664 118.003 35.48C118.003 34.28 117.795 33.256 117.379 32.408C116.963 31.544 116.395 30.88 115.675 30.416C114.971 29.952 114.155 29.72 113.227 29.72C112.331 29.72 111.483 29.944 110.683 30.392C109.883 30.84 109.227 31.488 108.715 32.336C108.219 33.184 107.971 34.232 107.971 35.48ZM111.787 35.48C111.787 34.904 111.907 34.408 112.147 33.992C112.387 33.56 112.707 33.232 113.107 33.008C113.507 32.768 113.947 32.648 114.427 32.648C114.843 32.648 115.243 32.76 115.627 32.984C116.027 33.208 116.355 33.536 116.611 33.968C116.867 34.384 116.995 34.888 116.995 35.48C116.995 36.072 116.867 36.584 116.611 37.016C116.355 37.432 116.027 37.752 115.627 37.976C115.243 38.2 114.843 38.312 114.427 38.312C113.947 38.312 113.507 38.2 113.107 37.976C112.707 37.736 112.387 37.408 112.147 36.992C111.907 36.56 111.787 36.056 111.787 35.48Z" fill="#2B2F33"/>
<path d="M70.6523 29.96L68.5883 32.864L66.5723 29.96H62.3963L66.6923 35.336L62.1562 41H66.3323L68.5883 37.784L70.8923 41H74.9243L70.4603 35.336L74.6843 29.96H70.6523Z" fill="#F5F5F5"/>
<path d="M1.008 26.792C1.088 27.768 1.352 28.624 1.8 29.36C2.248 30.112 2.912 30.696 3.792 31.112C4.688 31.528 5.816 31.736 7.176 31.736C8.312 31.736 9.336 31.528 10.248 31.112C11.16 30.712 11.888 30.072 12.432 29.192C12.992 28.312 13.272 27.168 13.272 25.76V14.96H9.792V25.76C9.792 26.432 9.664 26.992 9.408 27.44C9.168 27.904 8.84 28.248 8.424 28.472C8.008 28.712 7.544 28.832 7.032 28.832C6.568 28.832 6.152 28.752 5.784 28.592C5.416 28.448 5.12 28.224 4.896 27.92C4.688 27.616 4.56 27.24 4.512 26.792H1.008ZM0.768 20.336C0.768 21.568 1.016 22.6 1.512 23.432C2.024 24.264 2.68 24.896 3.48 25.328C4.28 25.744 5.128 25.952 6.024 25.952C6.952 25.952 7.768 25.736 8.472 25.304C9.192 24.856 9.76 24.216 10.176 23.384C10.592 22.536 10.8 21.52 10.8 20.336C10.8 19.136 10.592 18.12 10.176 17.288C9.76 16.456 9.192 15.824 8.472 15.392C7.768 14.944 6.952 14.72 6.024 14.72C5.128 14.72 4.28 14.928 3.48 15.344C2.68 15.76 2.024 16.384 1.512 17.216C1.016 18.048 0.768 19.088 0.768 20.336ZM4.584 20.336C4.584 19.76 4.704 19.272 4.944 18.872C5.184 18.472 5.504 18.168 5.904 17.96C6.304 17.752 6.744 17.648 7.224 17.648C7.528 17.648 7.832 17.704 8.136 17.816C8.44 17.928 8.712 18.096 8.952 18.32C9.208 18.544 9.408 18.824 9.552 19.16C9.712 19.496 9.792 19.888 9.792 20.336C9.792 20.928 9.664 21.424 9.408 21.824C9.152 22.224 8.824 22.528 8.424 22.736C8.04 22.928 7.64 23.024 7.224 23.024C6.744 23.024 6.304 22.92 5.904 22.712C5.504 22.504 5.184 22.2 4.944 21.8C4.704 21.384 4.584 20.896 4.584 20.336ZM18.8724 22.544C18.8724 22.272 18.9364 22.048 19.0644 21.872C19.1924 21.68 19.3844 21.536 19.6404 21.44C19.8964 21.344 20.2404 21.296 20.6724 21.296C21.2324 21.296 21.7604 21.376 22.2564 21.536C22.7684 21.68 23.2164 21.896 23.6004 22.184V20.576C23.4084 20.368 23.1204 20.168 22.7364 19.976C22.3524 19.784 21.8884 19.624 21.3444 19.496C20.8164 19.368 20.2164 19.304 19.5444 19.304C18.1684 19.304 17.1044 19.616 16.3524 20.24C15.6004 20.848 15.2244 21.68 15.2244 22.736C15.2244 23.488 15.4004 24.128 15.7524 24.656C16.1204 25.184 16.6004 25.584 17.1924 25.856C17.8004 26.112 18.4564 26.24 19.1604 26.24C19.8644 26.24 20.5204 26.12 21.1284 25.88C21.7364 25.624 22.2324 25.256 22.6164 24.776C23.0004 24.28 23.1924 23.68 23.1924 22.976L22.8084 21.536C22.8084 22.048 22.6964 22.48 22.4724 22.832C22.2484 23.184 21.9604 23.448 21.6084 23.624C21.2564 23.8 20.8724 23.888 20.4564 23.888C20.1684 23.888 19.9044 23.84 19.6644 23.744C19.4244 23.632 19.2324 23.48 19.0884 23.288C18.9444 23.08 18.8724 22.832 18.8724 22.544ZM17.2644 18.344C17.4244 18.248 17.6804 18.128 18.0324 17.984C18.3844 17.824 18.7924 17.688 19.2564 17.576C19.7364 17.464 20.2244 17.408 20.7204 17.408C21.0564 17.408 21.3524 17.44 21.6084 17.504C21.8804 17.568 22.1044 17.672 22.2804 17.816C22.4564 17.96 22.5844 18.136 22.6644 18.344C22.7604 18.536 22.8084 18.768 22.8084 19.04V26H26.2884V18.224C26.2884 17.456 26.0644 16.808 25.6164 16.28C25.1684 15.752 24.5604 15.352 23.7924 15.08C23.0244 14.792 22.1524 14.648 21.1764 14.648C20.1364 14.648 19.1764 14.784 18.2964 15.056C17.4164 15.328 16.6644 15.616 16.0404 15.92L17.2644 18.344ZM45.8499 18.896C45.8499 18 45.7379 17.24 45.5139 16.616C45.2899 15.992 44.9219 15.52 44.4099 15.2C43.9139 14.864 43.2339 14.696 42.3699 14.696C41.6179 14.696 40.9459 14.856 40.3539 15.176C39.7619 15.496 39.2659 15.944 38.8659 16.52C38.6419 15.928 38.2739 15.48 37.7619 15.176C37.2499 14.856 36.5619 14.696 35.6979 14.696C34.9459 14.696 34.2979 14.864 33.7539 15.2C33.2259 15.536 32.8099 16 32.5059 16.592V14.96H29.0019V26H32.5059V19.28C32.5059 18.832 32.5699 18.456 32.6979 18.152C32.8419 17.848 33.0339 17.624 33.2739 17.48C33.5299 17.32 33.8179 17.24 34.1379 17.24C34.6339 17.24 34.9859 17.416 35.1939 17.768C35.4179 18.104 35.5299 18.608 35.5299 19.28V26H39.1779V19.28C39.1779 18.832 39.2419 18.456 39.3699 18.152C39.5139 17.848 39.7059 17.624 39.9459 17.48C40.2019 17.32 40.4899 17.24 40.8099 17.24C41.3059 17.24 41.6579 17.416 41.8659 17.768C42.0899 18.104 42.2019 18.608 42.2019 19.28V26H45.8499V18.896ZM54.3054 26.24C55.7134 26.24 56.9054 25.968 57.8814 25.424C58.8734 24.88 59.6574 24.064 60.2334 22.976L56.9934 22.184C56.7214 22.664 56.3534 23.024 55.8894 23.264C55.4414 23.504 54.8974 23.624 54.2574 23.624C53.6974 23.624 53.2254 23.504 52.8414 23.264C52.4574 23.008 52.1694 22.64 51.9774 22.16C51.7854 21.68 51.6894 21.104 51.6894 20.432C51.7054 19.696 51.8014 19.088 51.9774 18.608C52.1694 18.112 52.4494 17.744 52.8174 17.504C53.1854 17.264 53.6414 17.144 54.1854 17.144C54.6174 17.144 54.9934 17.24 55.3134 17.432C55.6334 17.624 55.8814 17.896 56.0574 18.248C56.2334 18.6 56.3214 19.016 56.3214 19.496C56.3214 19.608 56.2894 19.752 56.2254 19.928C56.1774 20.088 56.1134 20.224 56.0334 20.336L56.8974 19.232H50.0814V21.248H60.1614C60.1934 21.136 60.2094 21 60.2094 20.84C60.2094 20.664 60.2094 20.488 60.2094 20.312C60.2094 19.128 59.9774 18.12 59.5134 17.288C59.0494 16.456 58.3774 15.824 57.4974 15.392C56.6174 14.944 55.5374 14.72 54.2574 14.72C52.9774 14.72 51.8654 14.952 50.9214 15.416C49.9934 15.88 49.2814 16.544 48.7854 17.408C48.2894 18.272 48.0414 19.296 48.0414 20.48C48.0414 21.648 48.2974 22.664 48.8094 23.528C49.3214 24.392 50.0414 25.064 50.9694 25.544C51.9134 26.008 53.0254 26.24 54.3054 26.24Z" fill="#725EF3"/>
<path d="M63 33.2716L65.904 35.3356L63 37.3516L63 41.5276L68.376 37.2316L74.04 41.7676L74.04 37.5916L70.824 35.3356L74.04 33.0316L74.04 28.9996L68.376 33.4636L63 29.2396L63 33.2716Z" fill="#725EF3"/>
</svg>
