<svg width="28" height="28" viewBox="0 0 28 28" fill="none" xmlns="http://www.w3.org/2000/svg">
<path fill-rule="evenodd" clip-rule="evenodd" d="M28 14C28 21.732 21.732 28 14 28C6.26801 28 0 21.732 0 14C0 6.26801 6.26801 0 14 0C21.732 0 28 6.26801 28 14ZM14 11.55C14.5799 11.55 15.05 12.0201 15.05 12.6V21C15.05 21.5799 14.5799 22.05 14 22.05C13.4201 22.05 12.95 21.5799 12.95 21V12.6C12.95 12.0201 13.4201 11.55 14 11.55ZM14 9.8C14.7732 9.8 15.4 9.1732 15.4 8.4C15.4 7.6268 14.7732 7 14 7C13.2268 7 12.6 7.6268 12.6 8.4C12.6 9.1732 13.2268 9.8 14 9.8Z" fill="#725EF3"/>
</svg>
