<svg width="13" height="17" viewBox="0 0 13 17" fill="none" xmlns="http://www.w3.org/2000/svg">
<path d="M12.8334 6.07754C12.8251 6.00481 12.8092 5.93317 12.7859 5.86379V5.79254C12.7478 5.71114 12.697 5.63632 12.6354 5.57087L7.88544 0.820874C7.81999 0.759295 7.74517 0.708521 7.66377 0.670457C7.64014 0.667101 7.61615 0.667101 7.59252 0.670457C7.5121 0.624336 7.42328 0.59473 7.33127 0.583374H2.54169C1.9118 0.583374 1.30771 0.833597 0.862308 1.279C0.41691 1.72439 0.166687 2.32849 0.166687 2.95837V14.0417C0.166687 14.6716 0.41691 15.2757 0.862308 15.7211C1.30771 16.1665 1.9118 16.4167 2.54169 16.4167H10.4584C11.0882 16.4167 11.6923 16.1665 12.1377 15.7211C12.5831 15.2757 12.8334 14.6716 12.8334 14.0417V6.12504C12.8334 6.12504 12.8334 6.12504 12.8334 6.07754ZM8.08335 3.28296L10.1338 5.33337H8.87502C8.66506 5.33337 8.46369 5.24997 8.31523 5.1015C8.16676 4.95303 8.08335 4.75167 8.08335 4.54171V3.28296ZM11.25 14.0417C11.25 14.2517 11.1666 14.453 11.0181 14.6015C10.8697 14.75 10.6683 14.8334 10.4584 14.8334H2.54169C2.33172 14.8334 2.13036 14.75 1.98189 14.6015C1.83343 14.453 1.75002 14.2517 1.75002 14.0417V2.95837C1.75002 2.74841 1.83343 2.54705 1.98189 2.39858C2.13036 2.25012 2.33172 2.16671 2.54169 2.16671H6.50002V4.54171C6.50002 5.1716 6.75024 5.77569 7.19564 6.22109C7.64104 6.66649 8.24513 6.91671 8.87502 6.91671H11.25V14.0417ZM8.31294 8.72962L5.70835 11.3421L4.6871 10.313C4.53803 10.1639 4.33584 10.0801 4.12502 10.0801C3.9142 10.0801 3.71201 10.1639 3.56294 10.313C3.41386 10.462 3.33011 10.6642 3.33011 10.875C3.33011 11.0859 3.41386 11.2881 3.56294 11.4371L5.14627 13.0205C5.21987 13.0947 5.30743 13.1536 5.4039 13.1937C5.50037 13.2339 5.60384 13.2546 5.70835 13.2546C5.81286 13.2546 5.91634 13.2339 6.01281 13.1937C6.10928 13.1536 6.19684 13.0947 6.27044 13.0205L9.4371 9.85379C9.58618 9.70472 9.66993 9.50253 9.66993 9.29171C9.66993 9.08089 9.58618 8.8787 9.4371 8.72962C9.28803 8.58055 9.08584 8.4968 8.87502 8.4968C8.6642 8.4968 8.46201 8.58055 8.31294 8.72962Z" fill="#725EF3"/>
</svg>
