<svg width="17" height="17" viewBox="0 0 17 17" fill="none" xmlns="http://www.w3.org/2000/svg">
<path d="M5.89543 5.10375L7.70834 3.28292V10.875C7.70834 11.085 7.79175 11.2863 7.94022 11.4348C8.08868 11.5833 8.29005 11.6667 8.50001 11.6667C8.70997 11.6667 8.91134 11.5833 9.0598 11.4348C9.20827 11.2863 9.29168 11.085 9.29168 10.875V3.28292L11.1046 5.10375C11.1782 5.17795 11.2657 5.23685 11.3622 5.27704C11.4587 5.31723 11.5622 5.33792 11.6667 5.33792C11.7712 5.33792 11.8747 5.31723 11.9711 5.27704C12.0676 5.23685 12.1552 5.17795 12.2288 5.10375C12.303 5.03015 12.3619 4.9426 12.4021 4.84612C12.4422 4.74965 12.4629 4.64618 12.4629 4.54167C12.4629 4.43716 12.4422 4.33368 12.4021 4.23721C12.3619 4.14074 12.303 4.05318 12.2288 3.97958L9.06209 0.812916C8.9868 0.740842 8.89802 0.684345 8.80084 0.646666C8.6081 0.567485 8.39192 0.567485 8.19918 0.646666C8.102 0.684345 8.01322 0.740842 7.93793 0.812916L4.77126 3.97958C4.69745 4.0534 4.63889 4.14103 4.59895 4.23747C4.559 4.33391 4.53844 4.43728 4.53844 4.54167C4.53844 4.64605 4.559 4.74942 4.59895 4.84586C4.63889 4.94231 4.69745 5.02994 4.77126 5.10375C4.84507 5.17756 4.9327 5.23612 5.02915 5.27606C5.12559 5.31601 5.22896 5.33657 5.33334 5.33657C5.43773 5.33657 5.5411 5.31601 5.63754 5.27606C5.73398 5.23612 5.82161 5.17756 5.89543 5.10375ZM15.625 8.5C15.415 8.5 15.2137 8.58341 15.0652 8.73187C14.9168 8.88034 14.8333 9.0817 14.8333 9.29167V14.0417C14.8333 14.2516 14.7499 14.453 14.6015 14.6015C14.453 14.7499 14.2516 14.8333 14.0417 14.8333H2.95834C2.74838 14.8333 2.54702 14.7499 2.39855 14.6015C2.25008 14.453 2.16668 14.2516 2.16668 14.0417V9.29167C2.16668 9.0817 2.08327 8.88034 1.9348 8.73187C1.78634 8.58341 1.58497 8.5 1.37501 8.5C1.16505 8.5 0.963684 8.58341 0.815217 8.73187C0.666751 8.88034 0.583344 9.0817 0.583344 9.29167V14.0417C0.583344 14.6716 0.833566 15.2756 1.27897 15.721C1.72436 16.1664 2.32845 16.4167 2.95834 16.4167H14.0417C14.6716 16.4167 15.2757 16.1664 15.7211 15.721C16.1665 15.2756 16.4167 14.6716 16.4167 14.0417V9.29167C16.4167 9.0817 16.3333 8.88034 16.1848 8.73187C16.0363 8.58341 15.835 8.5 15.625 8.5Z" fill="#725EF3"/>
</svg>
