<svg width="17" height="17" viewBox="0 0 17 17" fill="none" xmlns="http://www.w3.org/2000/svg">
<path d="M12.4584 6.12504H4.54169C4.33173 6.12504 4.13037 6.20845 3.9819 6.35691C3.83344 6.50538 3.75003 6.70674 3.75003 6.91671C3.75003 7.12667 3.83344 7.32803 3.9819 7.4765C4.13037 7.62497 4.33173 7.70837 4.54169 7.70837H12.4584C12.6683 7.70837 12.8697 7.62497 13.0182 7.4765C13.1666 7.32803 13.25 7.12667 13.25 6.91671C13.25 6.70674 13.1666 6.50538 13.0182 6.35691C12.8697 6.20845 12.6683 6.12504 12.4584 6.12504ZM9.2917 9.29171H4.54169C4.33173 9.29171 4.13037 9.37511 3.9819 9.52358C3.83344 9.67205 3.75003 9.87341 3.75003 10.0834C3.75003 10.2933 3.83344 10.4947 3.9819 10.6432C4.13037 10.7916 4.33173 10.875 4.54169 10.875H9.2917C9.50166 10.875 9.70302 10.7916 9.85149 10.6432C9.99995 10.4947 10.0834 10.2933 10.0834 10.0834C10.0834 9.87341 9.99995 9.67205 9.85149 9.52358C9.70302 9.37511 9.50166 9.29171 9.2917 9.29171ZM8.50003 0.583374C7.4604 0.583374 6.43094 0.788145 5.47045 1.18599C4.50996 1.58384 3.63723 2.16698 2.9021 2.90211C1.41744 4.38677 0.583361 6.40041 0.583361 8.50004C0.57644 10.3281 1.20941 12.101 2.37253 13.5113L0.789195 15.0946C0.679345 15.206 0.604931 15.3473 0.575343 15.5009C0.545755 15.6545 0.562319 15.8134 0.622945 15.9575C0.688699 16.1 0.795294 16.2197 0.929198 16.3014C1.0631 16.3832 1.21828 16.4233 1.37503 16.4167H8.50003C10.5997 16.4167 12.6133 15.5826 14.098 14.098C15.5826 12.6133 16.4167 10.5997 16.4167 8.50004C16.4167 6.40041 15.5826 4.38677 14.098 2.90211C12.6133 1.41745 10.5997 0.583374 8.50003 0.583374ZM8.50003 14.8334H3.28294L4.01919 14.0971C4.16664 13.9488 4.24941 13.7481 4.24941 13.539C4.24941 13.3299 4.16664 13.1292 4.01919 12.9809C2.98258 11.9454 2.33704 10.5826 2.19257 9.1245C2.04811 7.66645 2.41365 6.20342 3.22692 4.98466C4.04018 3.7659 5.25086 2.86682 6.65269 2.4406C8.05451 2.01438 9.56075 2.08739 10.9148 2.64718C12.2688 3.20697 13.3869 4.21892 14.0785 5.51062C14.77 6.80232 14.9924 8.29385 14.7076 9.73109C14.4228 11.1683 13.6485 12.4624 12.5166 13.3927C11.3847 14.3231 9.96522 14.8322 8.50003 14.8334Z" fill="#725EF3"/>
</svg>
