<svg width="17" height="15" viewBox="0 0 17 15" fill="none" xmlns="http://www.w3.org/2000/svg">
<path d="M15.6249 6.31242H14.8333V5.52075C14.8333 5.31079 14.7498 5.10943 14.6014 4.96096C14.4529 4.81249 14.2515 4.72909 14.0416 4.72909C13.8316 4.72909 13.6303 4.81249 13.4818 4.96096C13.3333 5.10943 13.2499 5.31079 13.2499 5.52075V6.31242H12.4583C12.2483 6.31242 12.0469 6.39583 11.8985 6.54429C11.75 6.69276 11.6666 6.89412 11.6666 7.10409C11.6666 7.31405 11.75 7.51541 11.8985 7.66388C12.0469 7.81235 12.2483 7.89575 12.4583 7.89575H13.2499V8.68742C13.2499 8.89738 13.3333 9.09875 13.4818 9.24721C13.6303 9.39568 13.8316 9.47909 14.0416 9.47909C14.2515 9.47909 14.4529 9.39568 14.6014 9.24721C14.7498 9.09875 14.8333 8.89738 14.8333 8.68742V7.89575H15.6249C15.8349 7.89575 16.0362 7.81235 16.1847 7.66388C16.3332 7.51541 16.4166 7.31405 16.4166 7.10409C16.4166 6.89412 16.3332 6.69276 16.1847 6.54429C16.0362 6.39583 15.8349 6.31242 15.6249 6.31242ZM9.52909 7.67409C9.9515 7.30844 10.2903 6.8562 10.5225 6.34806C10.7547 5.83992 10.8749 5.28777 10.8749 4.72909C10.8749 3.67927 10.4579 2.67245 9.71555 1.93012C8.97322 1.18779 7.9664 0.770752 6.91659 0.770752C5.86677 0.770752 4.85995 1.18779 4.11762 1.93012C3.37529 2.67245 2.95825 3.67927 2.95825 4.72909C2.95825 5.28777 3.07843 5.83992 3.31064 6.34806C3.54286 6.8562 3.88167 7.30844 4.30409 7.67409C3.19586 8.17591 2.25562 8.9863 1.59578 10.0084C0.935936 11.0304 0.584417 12.2209 0.583252 13.4374C0.583252 13.6474 0.666659 13.8487 0.815126 13.9972C0.963592 14.1457 1.16496 14.2291 1.37492 14.2291C1.58488 14.2291 1.78625 14.1457 1.93471 13.9972C2.08318 13.8487 2.16659 13.6474 2.16659 13.4374C2.16659 12.1776 2.66703 10.9695 3.55783 10.0787C4.44863 9.18786 5.65681 8.68742 6.91659 8.68742C8.17636 8.68742 9.38455 9.18786 10.2753 10.0787C11.1661 10.9695 11.6666 12.1776 11.6666 13.4374C11.6666 13.6474 11.75 13.8487 11.8985 13.9972C12.0469 14.1457 12.2483 14.2291 12.4583 14.2291C12.6682 14.2291 12.8696 14.1457 13.018 13.9972C13.1665 13.8487 13.2499 13.6474 13.2499 13.4374C13.2488 12.2209 12.8972 11.0304 12.2374 10.0084C11.5776 8.9863 10.6373 8.17591 9.52909 7.67409ZM6.91659 7.10409C6.44686 7.10409 5.98767 6.96479 5.59711 6.70383C5.20654 6.44286 4.90213 6.07193 4.72237 5.63796C4.54261 5.20398 4.49558 4.72645 4.58722 4.26575C4.67886 3.80504 4.90506 3.38186 5.23721 3.04971C5.56936 2.71756 5.99254 2.49136 6.45325 2.39972C6.91395 2.30808 7.39148 2.35511 7.82546 2.53487C8.25943 2.71463 8.63036 3.01904 8.89133 3.40961C9.1523 3.80017 9.29159 4.25936 9.29159 4.72909C9.29159 5.35897 9.04136 5.96307 8.59597 6.40846C8.15057 6.85386 7.54647 7.10409 6.91659 7.10409Z" fill="#725EF3"/>
</svg>
