<svg width="17" height="17" viewBox="0 0 17 17" fill="none" xmlns="http://www.w3.org/2000/svg">
<path d="M11.4369 9.0622C12.213 8.45156 12.7796 7.61418 13.0576 6.66657C13.3357 5.71896 13.3115 4.70825 12.9884 3.77503C12.6653 2.84182 12.0593 2.03251 11.2549 1.45971C10.4504 0.886913 9.48738 0.579102 8.49981 0.579102C7.51225 0.579102 6.54924 0.886913 5.74476 1.45971C4.94028 2.03251 4.33434 2.84182 4.01123 3.77503C3.68813 4.70825 3.66393 5.71896 3.942 6.66657C4.22007 7.61418 4.78659 8.45156 5.56273 9.0622C4.23279 9.59503 3.07237 10.4788 2.20519 11.6192C1.338 12.7597 0.796552 14.1141 0.638564 15.538C0.627128 15.642 0.636282 15.7472 0.665501 15.8476C0.694721 15.948 0.743434 16.0417 0.808861 16.1233C0.940996 16.2881 1.13318 16.3937 1.34315 16.4168C1.55311 16.4399 1.76365 16.3786 1.92845 16.2465C2.09324 16.1144 2.1988 15.9222 2.2219 15.7122C2.39574 14.1646 3.13365 12.7354 4.29465 11.6975C5.45566 10.6596 6.95836 10.0859 8.51565 10.0859C10.0729 10.0859 11.5756 10.6596 12.7366 11.6975C13.8976 12.7354 14.6356 14.1646 14.8094 15.7122C14.8309 15.9067 14.9237 16.0864 15.0699 16.2165C15.2161 16.3466 15.4054 16.418 15.6011 16.4168H15.6881C15.8957 16.3929 16.0853 16.288 16.2158 16.1249C16.3463 15.9617 16.4071 15.7537 16.3848 15.546C16.2261 14.1179 15.6817 12.7601 14.8101 11.6179C13.9384 10.4757 12.7724 9.59221 11.4369 9.0622ZM8.49981 8.50012C7.87351 8.50012 7.26126 8.3144 6.74051 7.96644C6.21975 7.61848 5.81387 7.12392 5.5742 6.54528C5.33452 5.96665 5.27181 5.32994 5.39399 4.71567C5.51618 4.10139 5.81778 3.53715 6.26064 3.09428C6.70351 2.65141 7.26776 2.34982 7.88203 2.22763C8.4963 2.10545 9.13301 2.16816 9.71165 2.40783C10.2903 2.64751 10.7848 3.05339 11.1328 3.57415C11.4808 4.0949 11.6665 4.70715 11.6665 5.33345C11.6665 6.17331 11.3329 6.97876 10.739 7.57262C10.1451 8.16649 9.33967 8.50012 8.49981 8.50012Z" fill="white"/>
</svg>
