<svg width="18" height="12" viewBox="0 0 18 12" fill="none" xmlns="http://www.w3.org/2000/svg">
<path d="M5.27796 1.28269C5.57216 0.991107 5.57428 0.516238 5.28269 0.222041C4.99111 -0.0721557 4.51624 -0.0742744 4.22204 0.217309L2.42731 1.9961C1.75134 2.66604 1.19886 3.21359 0.807056 3.70146C0.399628 4.20878 0.104695 4.72372 0.025909 5.34184C-0.00863633 5.61286 -0.00863633 5.88714 0.025909 6.15816C0.104695 6.77628 0.399627 7.29122 0.807056 7.79854C1.19886 8.28642 1.75134 8.83396 2.42732 9.50391L4.22204 11.2827C4.51624 11.5743 4.99111 11.5722 5.28269 11.278C5.57427 10.9838 5.57216 10.5089 5.27796 10.2173L3.51499 8.47C2.7995 7.76086 2.30869 7.27282 1.97659 6.85929C1.86867 6.72491 1.78446 6.6066 1.71908 6.5H16.75C17.1642 6.5 17.5 6.16421 17.5 5.75C17.5 5.33579 17.1642 5 16.75 5H1.71908C1.78446 4.8934 1.86867 4.77509 1.97659 4.64071C2.30869 4.22718 2.7995 3.73914 3.51499 3.03L5.27796 1.28269Z" fill="white"/>
</svg>
