<svg width="16" height="20" viewBox="0 0 16 20" fill="none" xmlns="http://www.w3.org/2000/svg">
<path d="M14.3 6.59L15.21 5.69C15.3983 5.5017 15.5041 5.2463 15.5041 4.98C15.5041 4.7137 15.3983 4.4583 15.21 4.27C15.0217 4.0817 14.7663 3.97591 14.5 3.97591C14.2337 3.97591 13.9783 4.0817 13.79 4.27L12.89 5.18C11.4885 4.09585 9.76684 3.50764 7.995 3.50764C6.22315 3.50764 4.50144 4.09585 3.1 5.18L2.19 4.26C2.00037 4.0717 1.7437 3.96644 1.47646 3.96737C1.20922 3.96831 0.953299 4.07537 0.764996 4.265C0.576692 4.45463 0.471431 4.7113 0.472369 4.97854C0.473306 5.24578 0.580366 5.5017 0.769996 5.69L1.69 6.6C0.593011 7.99755 -0.00221368 9.72334 -4.28859e-06 11.5C-0.00326997 12.7754 0.298459 14.0331 0.880019 15.1683C1.46158 16.3034 2.30611 17.283 3.34319 18.0254C4.38026 18.7679 5.57981 19.2516 6.84181 19.4362C8.1038 19.6208 9.39165 19.5011 10.5979 19.0869C11.8042 18.6727 12.894 17.9761 13.7764 17.0552C14.6588 16.1342 15.3082 15.0157 15.6705 13.7928C16.0327 12.5699 16.0974 11.2781 15.859 10.0251C15.6206 8.77219 15.0861 7.5944 14.3 6.59ZM8 17.5C6.81331 17.5 5.65327 17.1481 4.66657 16.4888C3.67988 15.8295 2.91084 14.8925 2.45672 13.7961C2.00259 12.6997 1.88377 11.4933 2.11528 10.3295C2.3468 9.16557 2.91824 8.09647 3.75736 7.25736C4.59647 6.41824 5.66557 5.8468 6.82945 5.61529C7.99334 5.38378 9.19974 5.5026 10.2961 5.95672C11.3925 6.41085 12.3295 7.17988 12.9888 8.16658C13.6481 9.15327 14 10.3133 14 11.5C14 13.0913 13.3679 14.6174 12.2426 15.7426C11.1174 16.8679 9.5913 17.5 8 17.5ZM6 2.5H10C10.2652 2.5 10.5196 2.39464 10.7071 2.20711C10.8946 2.01957 11 1.76522 11 1.5C11 1.23478 10.8946 0.98043 10.7071 0.792893C10.5196 0.605357 10.2652 0.5 10 0.5H6C5.73478 0.5 5.48043 0.605357 5.29289 0.792893C5.10535 0.98043 5 1.23478 5 1.5C5 1.76522 5.10535 2.01957 5.29289 2.20711C5.48043 2.39464 5.73478 2.5 6 2.5ZM9 8.5C9 8.23478 8.89464 7.98043 8.7071 7.79289C8.51957 7.60536 8.26521 7.5 8 7.5C7.73478 7.5 7.48043 7.60536 7.29289 7.79289C7.10535 7.98043 7 8.23478 7 8.5V10.39C6.77357 10.5925 6.61397 10.859 6.54232 11.1542C6.47066 11.4495 6.49034 11.7595 6.59874 12.0433C6.70714 12.3271 6.89915 12.5712 7.14936 12.7435C7.39958 12.9158 7.69621 13.008 8 13.008C8.30378 13.008 8.60041 12.9158 8.85063 12.7435C9.10085 12.5712 9.29286 12.3271 9.40125 12.0433C9.50965 11.7595 9.52933 11.4495 9.45768 11.1542C9.38603 10.859 9.22643 10.5925 9 10.39V8.5Z" fill="#2B2F33"/>
</svg>
